STARTFONT 2.1
FONT -demo-sevenseg-medium-r-normal--30-300-72-72-m-180-iso8859-1
SIZE 30 72 72
FONTBOUNDINGBOX 18 30 0 0
STARTPROPERTIES 2
FONT_ASCENT 30
FONT_DESCENT 0
ENDPROPERTIES
CHARS 10
STARTCHAR 0
ENCODING 48
SWIDTH 600 0
DWIDTH 18 0
BBX 18 30 0 0
BITMAP
000000
000000
3FFF00
3FFF00
3FFF00
3FFF00
3C0F00
3C0F00
3C0F00
3C0F00
3C0F00
3C0F00
3C0F00
3C0F00
3C0F00
3C0F00
3C0F00
3C0F00
3C0F00
3C0F00
3C0F00
3C0F00
3C0F00
3C0F00
3FFF00
3FFF00
3FFF00
3FFF00
000000
000000
ENDCHAR
STARTCHAR 1
ENCODING 49
SWIDTH 600 0
DWIDTH 18 0
BBX 18 30 0 0
BITMAP
000000
000000
000F00
000F00
000F00
000F00
000F00
000F00
000F00
000F00
000F00
000F00
000F00
000F00
000F00
000F00
000F00
000F00
000F00
000F00
000F00
000F00
000F00
000F00
000F00
000F00
000F00
000F00
000000
000000
ENDCHAR
STARTCHAR 2
ENCODING 50
SWIDTH 600 0
DWIDTH 18 0
BBX 18 30 0 0
BITMAP
000000
000000
3FFF00
3FFF00
3FFF00
3FFF00
000F00
000F00
000F00
000F00
000F00
000F00
000F00
3FFF00
3FFF00
3FFF00
3FFF00
3C0000
3C0000
3C0000
3C0000
3C0000
3C0000
3C0000
3FFF00
3FFF00
3FFF00
3FFF00
000000
000000
ENDCHAR
STARTCHAR 3
ENCODING 51
SWIDTH 600 0
DWIDTH 18 0
BBX 18 30 0 0
BITMAP
000000
000000
3FFF00
3FFF00
3FFF00
3FFF00
000F00
000F00
000F00
000F00
000F00
000F00
000F00
3FFF00
3FFF00
3FFF00
3FFF00
000F00
000F00
000F00
000F00
000F00
000F00
000F00
3FFF00
3FFF00
3FFF00
3FFF00
000000
000000
ENDCHAR
STARTCHAR 4
ENCODING 52
SWIDTH 600 0
DWIDTH 18 0
BBX 18 30 0 0
BITMAP
000000
000000
3C0F00
3C0F00
3C0F00
3C0F00
3C0F00
3C0F00
3C0F00
3C0F00
3C0F00
3C0F00
3C0F00
3FFF00
3FFF00
3FFF00
3FFF00
000F00
000F00
000F00
000F00
000F00
000F00
000F00
000F00
000F00
000F00
000F00
000000
000000
ENDCHAR
STARTCHAR 5
ENCODING 53
SWIDTH 600 0
DWIDTH 18 0
BBX 18 30 0 0
BITMAP
000000
000000
3FFF00
3FFF00
3FFF00
3FFF00
3C0000
3C0000
3C0000
3C0000
3C0000
3C0000
3C0000
3FFF00
3FFF00
3FFF00
3FFF00
000F00
000F00
000F00
000F00
000F00
000F00
000F00
3FFF00
3FFF00
3FFF00
3FFF00
000000
000000
ENDCHAR
STARTCHAR 6
ENCODING 54
SWIDTH 600 0
DWIDTH 18 0
BBX 18 30 0 0
BITMAP
000000
000000
3FFF00
3FFF00
3FFF00
3FFF00
3C0000
3C0000
3C0000
3C0000
3C0000
3C0000
3C0000
3FFF00
3FFF00
3FFF00
3FFF00
3C0F00
3C0F00
3C0F00
3C0F00
3C0F00
3C0F00
3C0F00
3FFF00
3FFF00
3FFF00
3FFF00
000000
000000
ENDCHAR
STARTCHAR 7
ENCODING 55
SWIDTH 600 0
DWIDTH 18 0
BBX 18 30 0 0
BITMAP
000000
000000
3FFF00
3FFF00
3FFF00
3FFF00
000F00
000F00
000F00
000F00
000F00
000F00
000F00
000F00
000F00
000F00
000F00
000F00
000F00
000F00
000F00
000F00
000F00
000F00
000F00
000F00
000F00
000F00
000000
000000
ENDCHAR
STARTCHAR 8
ENCODING 56
SWIDTH 600 0
DWIDTH 18 0
BBX 18 30 0 0
BITMAP
000000
000000
3FFF00
3FFF00
3FFF00
3FFF00
3C0F00
3C0F00
3C0F00
3C0F00
3C0F00
3C0F00
3C0F00
3FFF00
3FFF00
3FFF00
3FFF00
3C0F00
3C0F00
3C0F00
3C0F00
3C0F00
3C0F00
3C0F00
3FFF00
3FFF00
3FFF00
3FFF00
000000
000000
ENDCHAR
STARTCHAR 9
ENCODING 57
SWIDTH 600 0
DWIDTH 18 0
BBX 18 30 0 0
BITMAP
000000
000000
3FFF00
3FFF00
3FFF00
3FFF00
3C0F00
3C0F00
3C0F00
3C0F00
3C0F00
3C0F00
3C0F00
3FFF00
3FFF00
3FFF00
3FFF00
000F00
000F00
000F00
000F00
000F00
000F00
000F00
3FFF00
3FFF00
3FFF00
3FFF00
000000
000000
ENDCHAR
ENDFONT
